<?xml version="1.0" encoding="UTF-8" standalone="no"?>
<svg
   width="24"
   height="24"
   viewBox="0 0 24 24"
   version="1.1"
   id="svg1"
   sodipodi:docname="schneaggmap.svg"
   inkscape:version="1.4.2 (2aeb623e1d, 2025-05-12)"
   xmlns:inkscape="http://www.inkscape.org/namespaces/inkscape"
   xmlns:sodipodi="http://sodipodi.sourceforge.net/DTD/sodipodi-0.dtd"
   xmlns="http://www.w3.org/2000/svg"
   xmlns:svg="http://www.w3.org/2000/svg">
  <defs
     id="defs1" />
  <sodipodi:namedview
     id="namedview1"
     pagecolor="#ffffff"
     bordercolor="#000000"
     borderopacity="0.25"
     inkscape:showpageshadow="2"
     inkscape:pageopacity="0.0"
     inkscape:pagecheckerboard="0"
     inkscape:deskcolor="#d1d1d1"
     inkscape:zoom="23.776466"
     inkscape:cx="6.6452266"
     inkscape:cy="12.84884"
     inkscape:window-width="1920"
     inkscape:window-height="1016"
     inkscape:window-x="0"
     inkscape:window-y="0"
     inkscape:window-maximized="1"
     inkscape:current-layer="svg1" />
  <path
     d="M15,4.946l-6-2L2,5.279V21.387l7-2.333,6,2,7-2.333V2.613Zm-5,.442,4,1.333V18.612l-4-1.333ZM4,6.721,8,5.388V17.279L4,18.613ZM20,17.279l-4,1.333V6.721l4-1.334Z"
     id="path1" />
  <path
     style="fill:#000000;stroke-width:0.30358"
     d="m 11.987023,13.526124 v -0.06233 h -0.249308 -0.249306 v -0.06233 -0.06233 h -0.124653 -0.124653 v -0.06232 -0.06233 H 11.11445 10.989796 v -0.06233 -0.06233 h -0.436285 -0.436286 v 0.06233 0.06233 h -0.06233 -0.062331 v -0.06233 -0.06233 h 0.062331 0.06233 v -0.06233 -0.06233 h 0.249306 0.249305 v -0.06233 -0.06233 h 0.311634 0.311633 v -0.06233 -0.06233 h -0.37396 -0.373959 v 0.06233 0.06233 h -0.124653 -0.124654 v -0.186957 -0.186979 h 0.06233 0.06233 v -0.06233 -0.06233 h 0.124653 0.124653 v -0.06233 -0.06233 h 0.06233 0.06233 v -0.06233 -0.06233 h 0.06233 0.06233 v -0.06233 -0.06233 h 0.06233 0.06233 v -0.06233 -0.06233 h 0.373958 0.37396 v 0.06233 0.06233 h 0.436284 0.436286 v -0.06233 -0.06233 h 0.06233 0.06233 v -0.06233 -0.06233 h 0.06233 0.06233 V 11.593982 11.46933 h 0.06233 0.06233 v -0.124618 -0.124654 h 0.06233 0.06233 v -0.124672 -0.124653 h 0.06233 0.06233 v -0.124654 -0.124652 h -0.06233 -0.06233 V 10.596774 10.47212 h 0.06233 0.06233 v 0.06233 0.06233 h 0.06233 0.06233 v 0.124653 0.124652 h 0.06233 0.06233 V 10.721433 10.59678 h 0.06233 0.06233 v -0.06233 -0.06233 h 0.06233 0.06233 v 0.124653 0.124653 h -0.06233 -0.06233 v 0.124652 0.124654 h 0.06233 0.06233 v 0.124653 0.124654 h 0.06233 0.06233 v 0.06233 0.06233 h 0.06233 0.06233 v 0.249307 0.249306 h -0.06233 -0.06233 v 0.124653 0.124654 h -0.06233 -0.06233 v 0.311632 0.311634 h -0.06233 -0.06233 v 0.186979 0.18698 h -0.06233 -0.06233 v 0.06233 0.06233 h -0.06233 -0.06233 v 0.06233 0.06233 h -0.06233 -0.06233 v 0.06233 0.06233 h -0.12468 -0.124653 v 0.06233 0.06233 H 12.485662 11.98705 Z m 0.997225,-0.249306 v -0.06233 h -0.498614 -0.498611 v -0.06233 -0.06233 h -0.06233 -0.06233 v -0.06233 -0.06233 h -0.186976 -0.18698 v -0.06233 -0.06233 h -0.06233 -0.06233 v 0.06233 0.06233 h 0.06233 0.06233 v 0.06233 0.06233 h 0.186979 0.18698 v 0.06233 0.06233 h 0.06233 0.06233 v 0.06233 0.06233 h 0.498611 0.498613 z m 0.373959,-0.124654 v -0.06233 h -0.06233 -0.06233 v 0.06233 0.06233 h 0.06233 0.06233 z"
     id="path2" />
</svg>
