<?xml version="1.0" encoding="UTF-8" standalone="no"?>
<!-- Created with Inkscape (http://www.inkscape.org/) -->

<svg
   version="1.1"
   id="svg1"
   width="1024"
   height="1024"
   viewBox="0 0 1024 1024"
   sodipodi:docname="tools_and_games.svg"
   inkscape:version="1.4.2 (2aeb623e1d, 2025-05-12)"
   xmlns:inkscape="http://www.inkscape.org/namespaces/inkscape"
   xmlns:sodipodi="http://sodipodi.sourceforge.net/DTD/sodipodi-0.dtd"
   xmlns="http://www.w3.org/2000/svg"
   xmlns:svg="http://www.w3.org/2000/svg">
  <defs
     id="defs1" />
  <sodipodi:namedview
     id="namedview1"
     pagecolor="#ffffff"
     bordercolor="#000000"
     borderopacity="0.25"
     inkscape:showpageshadow="2"
     inkscape:pageopacity="0.0"
     inkscape:pagecheckerboard="0"
     inkscape:deskcolor="#d1d1d1"
     inkscape:zoom="0.78808594"
     inkscape:cx="511.36555"
     inkscape:cy="381.30359"
     inkscape:window-width="1920"
     inkscape:window-height="1016"
     inkscape:window-x="0"
     inkscape:window-y="0"
     inkscape:window-maximized="1"
     inkscape:current-layer="g1" />
  <g
     inkscape:groupmode="layer"
     inkscape:label="Image"
     id="g1">
    <path
       style="fill:#000000;stroke-width:1.43786"
       d="m 145.5948,943.44129 c -37.78749,-6.35206 -69.075339,-29.84911 -85.788651,-64.42692 -7.311106,-15.12579 -10.54821,-29.918 -10.54821,-48.20091 0,-25.2752 6.94583,-46.11892 24.355282,-73.0877 6.306499,-9.76933 12.303282,-20.12195 13.326163,-23.00581 1.488276,-4.19595 1.859806,-46.6058 1.859806,-212.29577 0,-232.85546 1.092719,-211.10682 -11.116269,-221.25017 C 74.306976,298.36926 67.339075,292.62199 62.198712,288.40237 42.88869,272.55108 25.082346,245.63527 17.130556,220.27799 4.0294761,178.5002 10.910904,129.53114 34.89148,93.889267 50.421961,70.806594 78.089032,48.038138 89.485065,48.961792 c 8.466032,0.686192 8.534652,1.197439 8.627832,64.280378 0.0753,51.05402 0.33289,57.168 2.574363,61.13015 1.98076,3.50126 7.93562,7.15427 29.09104,17.846 33.46999,16.91533 31.76078,16.8874 63.266,1.03372 12.25779,-6.16821 23.48545,-12.27095 24.95036,-13.56165 6.57106,-5.7896 6.68265,-6.9285 6.68265,-68.20098 0,-54.442855 0.16474,-58.231136 2.62947,-60.461681 1.44623,-1.308815 4.10556,-2.379649 5.90964,-2.379649 9.81428,0 35.56653,20.332731 49.89658,39.395941 8.30016,11.041643 19.5915,34.387319 23.36736,48.313749 7.28274,26.86074 7.04482,54.84456 -0.6933,81.5472 -9.21842,31.81086 -22.68818,50.41132 -59.94641,82.78034 -6.82273,5.92741 -10.02085,9.85475 -11.12344,13.65969 -1.08187,3.73343 -1.41908,67.64411 -1.12066,212.39277 0.42687,207.05238 0.42687,207.05238 3.85615,213.48646 1.8861,3.53872 6.83908,11.3032 11.00663,17.25436 9.47177,13.52549 16.65165,27.78494 21.01399,41.73435 2.90881,9.30149 3.37241,13.74893 3.37241,32.35192 0,19.80548 -0.3247,22.51312 -3.97355,33.13414 -6.26454,18.23471 -15.52338,32.75626 -29.75477,46.6673 -17.6442,17.24707 -34.0904,26.36738 -55.87086,30.98349 -8.93569,1.89382 -29.35717,2.48581 -37.65175,1.0915 z m 35.21832,-63.55571 c 16.46079,-7.28142 28.50346,-25.58715 28.43295,-43.22024 -0.0902,-22.56081 -14.05965,-40.27899 -36.94298,-46.8568 -21.25604,-6.11004 -45.2805,5.12658 -55.5409,25.97733 -2.89896,5.89116 -3.51931,9.3115 -3.51931,19.4039 0,10.95506 0.50227,13.27233 4.74464,21.88981 8.90093,18.08039 26.35028,27.74615 47.41568,26.26508 4.96345,-0.34896 11.8979,-1.90556 15.40992,-3.45908 z M 348.49509,732.23645 c -25.65998,-6.90082 -43.85733,-27.08088 -52.23174,-57.92262 -2.47323,-9.10857 -3.09433,-16.53032 -3.64563,-43.56369 -0.92581,-45.39632 2.18268,-80.10286 12.02025,-134.20752 12.05822,-66.31776 31.01976,-120.13084 54.97096,-156.0082 20.83385,-31.20774 51.9773,-54.62699 84.4202,-63.48231 9.22459,-2.51784 15.44118,-3.12599 32.27433,-3.15725 30.44824,-0.0565 46.74202,4.66909 78.09174,22.64874 28.64305,16.42728 25.54166,15.88019 93.01403,16.40808 39.81042,0.31147 60.96282,-0.0685 66.86067,-1.20135 9.18394,-1.76386 22.70443,-7.85881 46.01163,-20.74174 25.63784,-14.1712 46.51873,-19.06556 75.1973,-17.62587 26.13239,1.31188 45.45457,7.86241 68.5805,23.24986 49.00001,32.60349 83.42445,105.1929 101.96407,215.00761 11.6572,69.04734 13.6578,133.30659 5.1029,163.89298 -10.6883,38.21431 -40.03056,61.2359 -74.56687,58.50421 -28.26257,-2.23546 -48.11223,-15.58398 -80.54813,-54.16713 -7.6455,-9.0945 -24.54794,-29.79804 -37.56097,-46.00787 -36.34339,-45.27155 -48.3487,-55.51308 -69.00113,-58.86381 -12.1917,-1.97802 -175.31237,-1.99914 -189.03072,-0.0245 -13.6157,1.95989 -25.54582,7.84355 -36.56818,18.03455 -5.05519,4.6739 -23.23525,25.96806 -40.40016,47.32034 -38.69456,48.13413 -50.75552,61.93974 -62.76991,71.84976 -23.07642,19.03453 -49.10095,26.2658 -72.18514,20.05769 z M 852.08551,526.9423 c 4.06619,-2.38294 7.41625,-5.97385 9.99725,-10.71599 16.57422,-30.4523 -22.86382,-60.17716 -47.35159,-35.68937 -12.11124,12.11122 -12.03783,29.70841 0.17496,41.93984 3.18738,3.19224 8.0532,6.56095 10.81297,7.48602 7.46903,2.50364 19.24143,1.15502 26.36641,-3.0205 z m -356.96885,-6.33814 c 4.19262,-4.69574 4.19262,-4.69574 4.19262,-29.11674 v -24.421 h 23.79615 c 33.81874,0 35.15626,-1.01201 35.15626,-26.60048 0,-25.58846 -1.33752,-26.60048 -35.15626,-26.60048 h -23.79615 v -25.3064 c 0,-25.3064 0,-25.3064 -4.88874,-30.19513 -4.88875,-4.88874 -4.88875,-4.88874 -20.2015,-4.88874 -16.52885,0 -22.21721,1.68572 -25.52301,7.56366 -1.19493,2.12463 -1.99166,11.65933 -2.34171,28.02347 l -0.53056,24.80314 h -24.27871 c -24.27874,0 -24.27874,0 -28.97447,4.19564 -4.69575,4.19565 -4.69575,4.19565 -4.69575,22.40484 0,18.20921 0,18.20921 4.69575,22.40484 4.69573,4.19564 4.69573,4.19564 29.11674,4.19564 h 24.421 v 21.53886 c 0,34.58554 2.50155,37.75859 29.23772,37.08631 15.57801,-0.39168 15.57801,-0.39168 19.77062,-5.08743 z m 293.35672,-55.05392 c 11.71754,-5.97783 18.92522,-20.87759 15.76919,-32.59812 -6.25097,-23.21436 -34.30489,-30.97526 -51.13422,-14.14594 -11.91346,11.91347 -11.99538,28.21849 -0.20449,40.69786 9.72537,10.29323 22.86623,12.52695 35.56952,6.0462 z m 124.22171,-0.61272 c 15.86273,-9.21599 19.82467,-30.31306 8.27121,-44.04354 -4.63466,-5.50799 -16.5157,-11.30876 -23.20196,-11.32806 -12.39256,-0.0358 -23.59313,6.93934 -28.74591,17.90138 -5.74022,12.21178 -2.6749,24.71137 8.38074,34.17457 10.35466,8.86322 23.58639,10.0987 35.29592,3.29565 z M 852.1536,403.74314 c 2.87229,-1.94556 6.993,-6.12554 9.15716,-9.28883 3.44452,-5.0348 3.93483,-7.12335 3.93483,-16.76144 0,-10.17229 -0.3398,-11.43038 -4.46604,-16.53544 -12.07073,-14.93409 -32.20679,-16.71677 -45.22589,-4.00395 -15.02701,14.67346 -11.44521,38.14945 7.29562,47.8174 8.69305,4.48454 21.67401,3.94068 29.30432,-1.22774 z"
       id="path1"
       sodipodi:nodetypes="ssssssscssccsssssssssssssssssssssssssssssssssssssssssssssssssssssssssssssscssscssssscssssscsssssssssssssssssssss" />
  </g>
</svg>
